<?xml version="1.0" encoding="UTF-8"?>
<svg width="272px" height="283px" viewBox="0 0 272 283" version="1.1" xmlns="http://www.w3.org/2000/svg" xmlns:xlink="http://www.w3.org/1999/xlink">
    <!-- Generator: Sketch 46.2 (44496) - http://www.bohemiancoding.com/sketch -->
    <title>Angry cat</title>
    <desc>Created with Sketch.</desc>
    <defs></defs>
    <g id="Page-1" stroke="none" stroke-width="1" fill="none" fill-rule="evenodd">
        <g id="Desktop-HD-Copy-3" transform="translate(-584.000000, -437.000000)">
            <g id="Angry-cat" transform="translate(580.000000, 437.000000)">
                <g id="Standing-cat">
                    <path d="M220.11271,162.236729 C197.724091,139.758096 178.277648,128.108715 161.773381,127.288585 C145.269115,126.468455 126.562802,135.985321 105.654443,155.839182" id="Line-3" stroke="#D8D8D8" stroke-width="110.88" stroke-linecap="round"></path>
                    <rect id="Rectangle" fill="#D8D8D8" transform="translate(21.997080, 158.802604) rotate(31.000000) translate(-21.997080, -158.802604) " x="10.3292144" y="136.05824" width="23.3357314" height="45.4887279" rx="11.6678657"></rect>
                    <rect id="Rectangle" fill="#D8D8D8" transform="translate(40.813630, 156.032310) rotate(117.000000) translate(-40.813630, -156.032310) " x="29.1457639" y="128.869364" width="23.3357314" height="54.3258929" rx="11.6678657"></rect>
                    <rect id="Rectangle" fill="#D8D8D8" x="95.8657074" y="174.979911" width="23.3357314" height="108.020089" rx="11.6678657"></rect>
                    <rect id="Rectangle" fill="#D8D8D8" x="209.390887" y="174.979911" width="23.3357314" height="108.020089" rx="11.6678657"></rect>
                    <rect id="Rectangle" fill="#D8D8D8" x="239.664269" y="174.979911" width="23.3357314" height="108.020089" rx="11.6678657"></rect>
                    <rect id="Rectangle" fill="#D8D8D8" x="239.664269" y="0" width="23.3357314" height="145.290179" rx="11.6678657"></rect>
                    <path d="M93.3289346,17.177162 L111.123803,13.9098377 L111.123803,13.9098377 C114.54599,13.2814885 117.829597,15.5463409 118.457947,18.9685273 C118.586966,19.671205 118.595525,20.3907089 118.483258,21.096257 L115.504642,39.8155324 L115.504642,39.8155324 C113.791933,50.5791533 104.509525,58.5013194 93.6104923,58.5013194 L93.6104923,58.5013194 L93.6104923,58.5013194 C83.160788,58.5013194 74.689629,50.0301603 74.689629,39.5804561 L74.689629,39.5504265 L74.689629,39.5504265 C74.689629,28.5718618 82.5308775,19.1597983 93.3289346,17.177162 Z" id="Rectangle" fill="#D8D8D8" transform="translate(96.623914, 36.154154) rotate(-44.000000) translate(-96.623914, -36.154154) "></path>
                    <path d="M29.2436622,17.4128024 L47.0385308,14.1454781 L47.0385308,14.1454781 C50.4607172,13.5171289 53.744325,15.7819813 54.3726743,19.2041677 C54.5016933,19.9068454 54.5102524,20.6263493 54.3979854,21.3318974 L51.41937,40.0511728 L51.41937,40.0511728 C49.7066602,50.8147937 40.4242524,58.7369598 29.5252199,58.7369598 L29.5252199,58.7369598 L29.5252199,58.7369598 C19.0755157,58.7369598 10.6043566,50.2658007 10.6043566,39.8160965 L10.6043566,39.7860669 L10.6043566,39.7860669 C10.6043566,28.8075022 18.4456051,19.3954387 29.2436622,17.4128024 Z" id="Rectangle" fill="#D8D8D8" transform="translate(32.538642, 36.389794) rotate(-44.000000) translate(-32.538642, -36.389794) "></path>
                    <ellipse id="Oval" fill="#D8D8D8" cx="65.5923261" cy="82.1205357" rx="58.6546763" ry="51.1674107"></ellipse>
                    <path d="M83.6827999,88.2076732 C91.6942398,88.2076732 98.1887951,85.3381562 98.1887951,77.3140012 C98.1887951,69.2898462 91.6942398,67.7260175 83.6827999,67.7260175 C75.6713599,67.7260175 69.1768047,69.2898462 69.1768047,77.3140012 C69.1768047,85.3381562 75.6713599,88.2076732 83.6827999,88.2076732 Z" id="Oval-2" fill="#FFFFFF" transform="translate(83.682800, 77.966845) rotate(-15.000000) translate(-83.682800, -77.966845) "></path>
                    <ellipse id="Oval-3" fill="#000000" cx="83.107497" cy="78.2119001" rx="6.62230216" ry="8.84375"></ellipse>
                    <path d="M43.9489869,88.2076732 C51.9604269,88.2076732 58.4549821,85.3381562 58.4549821,77.3140012 C58.4549821,69.2898462 51.9604269,67.7260175 43.9489869,67.7260175 C35.937547,67.7260175 29.4429917,69.2898462 29.4429917,77.3140012 C29.4429917,85.3381562 35.937547,88.2076732 43.9489869,88.2076732 Z" id="Oval-2" fill="#FFFFFF" transform="translate(43.948987, 77.966845) scale(-1, 1) rotate(-15.000000) translate(-43.948987, -77.966845) "></path>
                    <ellipse id="Oval-3" fill="#000000" transform="translate(44.004379, 78.211900) scale(-1, 1) translate(-44.004379, -78.211900) " cx="44.0043795" cy="78.2119001" rx="6.62230216" ry="8.84375"></ellipse>
                    <path d="M64.9616307,104.229911 C64.9616307,107.952531 66.4731826,109.95831 69.4962863,110.247247 C72.5193901,110.536184 74.7184461,112.253026 76.0934545,115.397772" id="Line" stroke="#979797" stroke-width="1.89" stroke-linecap="round"></path>
                    <path d="M53.6091127,104.229911 C53.6091127,107.952531 55.1206646,109.95831 58.1437683,110.247247 C61.1668721,110.536184 63.3659281,112.253026 64.7409365,115.397772" id="Line" stroke="#979797" stroke-width="1.89" stroke-linecap="round" transform="translate(59.175025, 109.813841) scale(-1, 1) translate(-59.175025, -109.813841) "></path>
                    <path d="M69.3177634,99.7498777 C69.4695505,99.9342883 69.5887143,100.064547 69.6752546,100.140654 C69.9082341,100.345546 70.6744037,100.834814 71.9737634,101.608456 L71.9737733,101.608439 C72.8706631,102.14245 73.1648348,103.302424 72.6308241,104.199314 C72.2900161,104.771713 71.6730376,105.122421 71.0068614,105.122421 L59.7247486,105.122421 L59.7247486,105.122438 C58.6809212,105.122438 57.8347318,104.276249 57.8347318,103.232421 C57.8347318,102.5469 58.2059261,101.915121 58.8047512,101.581431 C60.1718705,100.819618 60.9684021,100.339359 61.194346,100.140654 C61.2643548,100.079086 61.3526534,99.9802871 61.4592418,99.8442586 L61.459247,99.8442626 C63.1760596,97.6532604 66.3439695,97.2688537 68.5349717,98.9856663 C68.8228578,99.2112464 69.0853342,99.4674926 69.3177634,99.7498777 Z" id="Triangle" fill="#FFBFBF" transform="translate(65.366530, 101.517684) scale(-1, -1) translate(-65.366530, -101.517684) "></path>
                </g>
            </g>
        </g>
    </g>
</svg>