<?xml version="1.0" encoding="UTF-8"?>
<svg width="270px" height="318px" viewBox="0 0 270 318" version="1.1" xmlns="http://www.w3.org/2000/svg" xmlns:xlink="http://www.w3.org/1999/xlink">
    <!-- Generator: Sketch 46.2 (44496) - http://www.bohemiancoding.com/sketch -->
    <title>Group 2</title>
    <desc>Created with Sketch.</desc>
    <defs>
        <circle id="path-1" cx="51.5" cy="51.5" r="51.5"></circle>
    </defs>
    <g id="Page-1" stroke="none" stroke-width="1" fill="none" fill-rule="evenodd">
        <g id="Desktop-HD" transform="translate(-578.000000, -440.000000)">
            <g id="Group-2" transform="translate(572.000000, 440.000000)">
                <g id="Group" transform="translate(108.000000, 215.000000)">
                    <mask id="mask-2" fill="white">
                        <use xlink:href="#path-1"></use>
                    </mask>
                    <use id="Mask" fill="#5398E1" xlink:href="#path-1"></use>
                    <g mask="url(#mask-2)" id="Oval-5" fill="#368C39">
                        <g transform="translate(-15.178947, -2.710526)">
                            <path d="M69.3894737,42.664723 C73.8804207,42.664723 77.5210526,37.2037752 77.5210526,30.4673546 C77.5210526,23.730934 82.0119997,9.75789474 77.5210526,9.75789474 C73.0301056,9.75789474 61.2578947,23.730934 61.2578947,30.4673546 C61.2578947,37.2037752 64.8985266,42.664723 69.3894737,42.664723 Z"></path>
                            <path d="M96.8454082,43.0150008 C103.778894,43.0150008 112.229169,45.6281646 116.054286,42.6547674 C118.628781,40.6535219 117.849194,33.637328 117.849194,30.9586745 C117.849194,24.3001494 129.449264,10.488685 117.849194,10.488685 C106.249123,10.488685 75.8416227,24.3001494 75.8416227,30.9586745 C75.8416227,37.6171996 85.2453378,43.0150008 96.8454082,43.0150008 Z" transform="translate(99.423202, 27.282643) rotate(35.000000) translate(-99.423202, -27.282643) "></path>
                            <path d="M86.4619927,64.8680804 C94.8221849,64.8680804 105.261344,60.7603869 109.873557,57.7869897 C112.977807,55.7857442 112.037804,48.7695503 112.037804,46.0908968 C112.037804,45.2193574 112.80363,35.4929592 111.571565,34.1528253 C108.098004,30.3745867 98.7947977,34.2132123 89.4490868,34.2127749 C85.5436356,34.212592 82.692837,42.3340509 78.7993315,43.5560494 C70.066451,46.2969129 61.8469246,43.260144 61.6214507,49.1013022 C61.3644966,55.7579919 72.4749715,64.8680804 86.4619927,64.8680804 Z" transform="translate(86.945050, 48.678594) rotate(-1.000000) translate(-86.945050, -48.678594) "></path>
                            <path d="M22.4531552,43.0464687 C29.3866413,43.0464687 37.8369156,45.6596325 41.6620326,42.6862354 C44.2365284,40.6849898 43.4569407,33.6687959 43.4569407,30.9901425 C43.4569407,24.3316174 42.965168,13.7212008 31.3650975,13.7212008 C19.7650271,13.7212008 8.82570423,22.8449287 8.82570423,29.5034539 C8.82570423,36.161979 10.8530847,43.0464687 22.4531552,43.0464687 Z" transform="translate(26.196779, 28.914635) rotate(35.000000) translate(-26.196779, -28.914635) "></path>
                            <path d="M19.2005236,87.4991003 C26.1340097,87.4991003 34.584284,90.1122641 38.4094011,87.138867 C40.9838969,85.1376214 40.2043091,78.1214275 40.2043091,75.442774 C40.2043091,68.7842489 39.7125364,58.1738324 28.112466,58.1738324 C16.5123955,58.1738324 5.57307265,67.2975603 5.57307265,73.9560854 C5.57307265,80.6146106 7.60045315,87.4991003 19.2005236,87.4991003 Z" transform="translate(22.944147, 73.367267) scale(1, -1) rotate(35.000000) translate(-22.944147, -73.367267) "></path>
                            <path d="M65.2139117,101.224878 C69.7048588,101.224878 76.8973135,84.6557011 76.8973135,77.9192806 C76.8973135,71.18286 68.5621931,67.2210526 64.071246,67.2210526 C59.580299,67.2210526 49.3315789,69.8127734 49.3315789,76.549194 C49.3315789,83.2856145 60.7229647,101.224878 65.2139117,101.224878 Z"></path>
                        </g>
                    </g>
                </g>
                <g id="Standing-cat">
                    <rect id="Rectangle" fill="#D8D8D8" transform="translate(89.902280, 206.689189) rotate(-32.000000) translate(-89.902280, -206.689189) " x="78.2149837" y="152.77027" width="23.3745928" height="107.837838" rx="11.6872964"></rect>
                    <rect id="Rectangle" fill="#D8D8D8" transform="translate(119.570033, 206.689189) rotate(-32.000000) translate(-119.570033, -206.689189) " x="107.882736" y="152.77027" width="23.3745928" height="107.837838" rx="11.6872964"></rect>
                    <rect id="Rectangle" fill="#D8D8D8" transform="translate(205.876221, 208.486486) scale(-1, 1) rotate(-32.000000) translate(-205.876221, -208.486486) " x="194.188925" y="154.567568" width="23.3745928" height="107.837838" rx="11.6872964"></rect>
                    <rect id="Rectangle" fill="#D8D8D8" transform="translate(231.947883, 213.878378) scale(-1, 1) rotate(-32.000000) translate(-231.947883, -213.878378) " x="220.260586" y="159.959459" width="23.3745928" height="107.837838" rx="11.6872964"></rect>
                    <rect id="Rectangle" fill="#D8D8D8" x="239.140065" y="0" width="23.3745928" height="144.682432" rx="11.6872964"></rect>
                    <rect id="Rectangle" fill="#D8D8D8" x="50.3452769" y="96.1554054" width="225.654723" height="107.837838" rx="53.9189189"></rect>
                    <path d="M93.3516375,16.8612523 L111.237079,13.573559 L111.237079,13.573559 C114.659138,12.9445177 117.943204,15.208706 118.572245,18.6307652 C118.701416,19.3334704 118.710112,20.0530283 118.597961,20.7586499 L115.596202,39.6448518 L115.596202,39.6448518 C113.878307,50.4533487 104.557924,58.4093469 93.6137585,58.4093469 L93.6137585,58.4093469 L93.6137585,58.4093469 C83.1203327,58.4093469 74.6137302,49.9027445 74.6137302,39.4093186 L74.6137302,39.3574962 L74.6137302,39.3574962 C74.6137302,28.3199192 82.4959418,18.8567411 93.3516375,16.8612523 Z" id="Rectangle" fill="#D8D8D8" transform="translate(96.645855, 35.938152) rotate(-44.000000) translate(-96.645855, -35.938152) "></path>
                    <path d="M28.6219958,17.7599009 L46.507437,14.4722076 L46.507437,14.4722076 C49.9294962,13.8431663 53.213562,16.1073547 53.8426033,19.5294139 C53.9717742,20.232119 53.9804703,20.9516769 53.8683193,21.6572985 L50.8665602,40.5435005 L50.8665602,40.5435005 C49.1486656,51.3519973 39.8282827,59.3079955 28.8841168,59.3079955 L28.8841168,59.3079955 L28.8841168,59.3079955 C18.390691,59.3079955 9.88408855,50.8013931 9.88408855,40.3079673 L9.88408855,40.2561449 L9.88408855,40.2561449 C9.88408855,29.2185679 17.7663001,19.7553898 28.6219958,17.7599009 Z" id="Rectangle" fill="#D8D8D8" transform="translate(31.916214, 36.836801) rotate(-44.000000) translate(-31.916214, -36.836801) "></path>
                    <ellipse id="Oval" fill="#D8D8D8" cx="64.7296417" cy="81.777027" rx="58.4364821" ry="51.222973"></ellipse>
                    <ellipse id="Oval-2" fill="#FFFFFF" cx="83.6091205" cy="77.7331081" rx="14.3843648" ry="15.7263514"></ellipse>
                    <ellipse id="Oval-3" fill="#000000" cx="84.0586319" cy="78.6317568" rx="6.74267101" ry="9.43581081"></ellipse>
                    <path d="M64.7296417,104.243243 C65.3196261,107.806611 67.6126748,110.775756 71.6087876,113.150678 C75.6049005,115.5256 79.0056629,113.573847 81.8110749,107.295417" id="Line" stroke="#979797" stroke-width="1.89" stroke-linecap="round"></path>
                    <path d="M47.6482085,104.243243 C48.2381929,107.806611 50.5312416,110.775756 54.5273544,113.150678 C58.5234673,115.5256 61.9242297,113.573847 64.7296417,107.295417" id="Line" stroke="#979797" stroke-width="1.89" stroke-linecap="round" transform="translate(56.188925, 109.185811) scale(-1, 1) translate(-56.188925, -109.185811) "></path>
                    <ellipse id="Oval-2" fill="#FFFFFF" cx="45.8501629" cy="77.7331081" rx="14.3843648" ry="15.7263514"></ellipse>
                    <ellipse id="Oval-3" fill="#000000" cx="45.4006515" cy="78.6317568" rx="6.74267101" ry="9.43581081"></ellipse>
                    <path d="M69.1301421,99.7943757 C69.3163884,100.020875 69.4596148,100.17734 69.5598214,100.26377 C69.7948788,100.466511 70.5637372,100.948475 71.8663967,101.709661 L71.8664098,101.709639 C72.7676582,102.236267 73.0713476,103.39379 72.5447189,104.295039 C72.2058279,104.875002 71.5845816,105.231519 70.9128644,105.231519 L59.4455114,105.231519 L59.4455114,105.231511 C58.4016978,105.231511 57.5555196,104.385333 57.5555196,103.341519 C57.5555196,102.650649 57.9324809,102.014828 58.5386207,101.683322 C59.9094398,100.933602 60.7088459,100.460418 60.9368392,100.26377 C61.0186889,100.193173 61.1251265,100.073489 61.256152,99.9047183 L61.2561572,99.9047223 C62.963114,97.706033 66.1292658,97.307405 68.3279551,99.0143618 C68.6234724,99.2437872 68.8925256,99.5054036 69.1301421,99.7943757 Z" id="Triangle" fill="#FFBFBF" transform="translate(65.179035, 101.592111) scale(-1, -1) translate(-65.179035, -101.592111) "></path>
                </g>
            </g>
        </g>
    </g>
</svg>