<?xml version="1.0" encoding="UTF-8"?>
<svg width="262px" height="187px" viewBox="0 0 262 187" version="1.1" xmlns="http://www.w3.org/2000/svg" xmlns:xlink="http://www.w3.org/1999/xlink">
    <!-- Generator: Sketch 46.2 (44496) - http://www.bohemiancoding.com/sketch -->
    <title>Cozy cat</title>
    <desc>Created with Sketch.</desc>
    <defs>
        <path d="M92.0728099,12.7435875 L109.910595,9.47423665 L109.910595,9.47423665 C113.332981,8.84697383 116.615869,11.1128686 117.243132,14.5352542 C117.371913,15.2378904 117.380257,15.9573113 117.267807,16.6627453 L114.294986,35.3122156 L114.294986,35.3122156 C112.578471,46.08047 103.29093,54.0047878 92.3867233,54.0047878 L92.382883,54.0047878 L92.382883,54.0047878 C81.9310426,54.0047878 73.4581518,45.531897 73.4581518,35.0800566 L73.4581518,35.0800566 L73.4581518,35.0800566 C73.4581518,24.1174678 81.2898381,14.7199157 92.0728099,12.7435875 Z" id="path-1"></path>
        <path d="M27.96143,12.9789026 L45.7992152,9.70955174 L45.7992152,9.70955174 C49.2216008,9.08228892 52.5044895,11.3481837 53.1317523,14.7705693 C53.2605331,15.4732055 53.2688771,16.1926264 53.1564273,16.8980604 L50.1836064,35.5475307 L50.1836064,35.5475307 C48.4670916,46.3157851 39.1795501,54.2401029 28.2753434,54.2401029 L28.2715031,54.2401029 L28.2715031,54.2401029 C17.8196627,54.2401029 9.34677196,45.7672121 9.34677196,35.3153717 L9.34677196,35.3153717 L9.34677196,35.3153717 C9.34677196,24.3527829 17.1784582,14.9552308 27.96143,12.9789026 Z" id="path-2"></path>
    </defs>
    <g id="Page-1" stroke="none" stroke-width="1" fill="none" fill-rule="evenodd">
        <g id="Desktop-HD-Copy-4" transform="translate(-568.000000, -487.000000)">
            <g id="Cozy-cat" transform="translate(544.000000, 503.000000)">
                <path d="M230.297619,87.9003561 C230.297619,57.2135423 210.843254,41.0929263 171.934524,39.5385081 C133.025794,37.9840899 113.571429,54.1047059 113.571429,87.9003561" id="Line-3" stroke="#D8D8D8" stroke-width="110.88" stroke-linecap="round"></path>
                <g id="Head" transform="translate(87.499970, 88.130823) rotate(-31.000000) translate(-87.499970, -88.130823) translate(24.089255, 23.786737)">
                    <g id="Rectangle" transform="translate(95.401373, 31.688473) rotate(-44.000000) translate(-95.401373, -31.688473) ">
                        <use fill="#D8D8D8" fill-rule="evenodd" xlink:href="#path-1"></use>
                        <path stroke="#C7C7C7" stroke-width="1.89" d="M92.2431739,13.6731041 C81.9089279,15.5671888 74.4031518,24.5736683 74.4031518,35.0800566 C74.4031518,45.0099879 82.4529517,53.0597878 92.382883,53.0597878 L92.3867233,53.0597878 C102.826448,53.0597878 111.718371,45.4730191 113.361768,35.1634559 L116.334589,16.5139856 C116.430172,15.9143667 116.423079,15.3028589 116.313616,14.7056182 C115.780442,11.7965904 112.989987,9.87057985 110.080959,10.4037532 L92.2431739,13.6731041 Z"></path>
                    </g>
                    <g id="Rectangle" transform="translate(31.289993, 31.923788) rotate(-44.000000) translate(-31.289993, -31.923788) ">
                        <use fill="#D8D8D8" fill-rule="evenodd" xlink:href="#path-2"></use>
                        <path stroke="#C7C7C7" stroke-width="1.89" d="M28.131794,13.9084192 C17.797548,15.8025039 10.291772,24.8089834 10.291772,35.3153717 C10.291772,45.245303 18.3415718,53.2951029 28.2715031,53.2951029 L28.2753434,53.2951029 C38.7150678,53.2951029 47.6069915,45.7083342 49.2503885,35.398771 L52.2232095,16.7493007 C52.3187918,16.1496818 52.3116994,15.538174 52.2022357,14.9409333 C51.6690623,12.0319055 48.8786069,10.105895 45.9695792,10.6390683 L28.131794,13.9084192 Z"></path>
                    </g>
                    <ellipse id="Oval" stroke="#C7C7C7" stroke-width="1.89" fill="#D8D8D8" cx="64.3571429" cy="77.5913978" rx="58.6785714" ry="51.0967742"></ellipse>
                    <ellipse id="Oval-2" fill="#FFFFFF" cx="83.2857143" cy="73.1756272" rx="14.5119048" ry="15.7706093"></ellipse>
                    <ellipse id="Oval-3" fill="#000000" cx="82.9702381" cy="74.437276" rx="6.625" ry="9.46236559"></ellipse>
                    <path d="M63.7261905,100.301075 C64.3195646,103.99339 66.6257878,107.069979 70.6448599,109.530842 C74.6639321,111.991705 78.0842333,109.969323 80.9057635,103.463697" id="Line" stroke="#979797" stroke-width="1.89" stroke-linecap="round"></path>
                    <path d="M46.6904762,100.301075 C47.2838503,103.99339 49.5900735,107.069979 53.6091456,109.530842 C57.6282178,111.991705 61.048519,109.969323 63.8700492,103.463697" id="Line" stroke="#979797" stroke-width="1.89" stroke-linecap="round" transform="translate(55.280263, 105.422498) scale(-1, 1) translate(-55.280263, -105.422498) "></path>
                    <ellipse id="Oval-2" fill="#FFFFFF" cx="44.797619" cy="73.1756272" rx="14.5119048" ry="15.7706093"></ellipse>
                    <ellipse id="Oval-3" fill="#000000" cx="44.4821429" cy="74.437276" rx="6.625" ry="9.46236559"></ellipse>
                    <path d="M68.0811742,95.1928551 C68.2344174,95.378889 68.3546042,95.5101505 68.4417347,95.5866398 C68.674255,95.7907626 69.4376494,96.2775192 70.7319178,97.0469098 L70.7319182,97.0469092 C71.6291708,97.5802898 71.9241473,98.7400472 71.3907667,99.6372998 C71.050121,100.210334 70.4327861,100.561529 69.7661471,100.561529 L58.4955432,100.561529 L58.4955432,100.561524 C57.4517279,100.561524 56.6055483,99.7153448 56.6055483,98.6715295 C56.6055483,97.9855675 56.9772196,97.3534559 57.5766505,97.0199494 C58.9383046,96.2623633 59.7318781,95.7845935 59.957371,95.5866398 C60.027878,95.5247439 60.1169284,95.4251691 60.2245222,95.2879157 L60.2245265,95.287919 C61.9417901,93.0972695 65.1097796,92.7135144 67.3004292,94.4307779 C67.5874866,94.655804 67.8492684,94.9113265 68.0811742,95.1928551 Z" id="Triangle" fill="#FFBFBF" transform="translate(64.131255, 96.961768) scale(-1, -1) translate(-64.131255, -96.961768) "></path>
                </g>
                <path d="M207.425522,86.4229391 C220.257311,100.708793 227.901048,117.029849 230.356733,135.386108 C232.812418,153.742367 225.168681,170.224178 207.425522,184.831541" id="Line-2" stroke="#D8D8D8" stroke-width="23.31" stroke-linecap="round" transform="translate(219.115041, 135.627240) rotate(51.000000) translate(-219.115041, -135.627240) "></path>
            </g>
        </g>
    </g>
</svg>