<?xml version="1.0" encoding="UTF-8"?>
<svg width="187px" height="405px" viewBox="0 0 187 405" version="1.1" xmlns="http://www.w3.org/2000/svg" xmlns:xlink="http://www.w3.org/1999/xlink">
    <!-- Generator: Sketch 46.2 (44496) - http://www.bohemiancoding.com/sketch -->
    <title>Group 3</title>
    <desc>Created with Sketch.</desc>
    <defs>
        <rect id="path-1" x="29.5176471" y="191.923767" width="28.0039216" height="80.8497758" rx="14.0019608"></rect>
        <rect id="path-2" x="97.6352941" y="191.923767" width="28.0039216" height="144.320628" rx="14.0019608"></rect>
    </defs>
    <g id="Page-1" stroke="none" stroke-width="1" fill="none" fill-rule="evenodd">
        <g id="Desktop-HD-Copy-6" transform="translate(-903.000000, -287.000000)">
            <g id="Group-3" transform="translate(902.000000, 284.000000)">
                <g id="Group-2" transform="translate(88.703619, 32.605003) rotate(14.000000) translate(-88.703619, -32.605003) translate(56.203619, 7.105003)" fill="#FFBFBF">
                    <path d="M31,51 C17.1783223,39.6872974 8.68958535,32.2472352 5.5337892,28.6798135 C2.37799305,25.1123918 3.20006332,23.8857873 8,25 C18.5907376,16.8884456 26.624019,12.8326684 32.0998442,12.8326684 C37.5756695,12.8326684 44.8757214,16.8884456 54,25 C60.1973155,24.5065003 61.9926213,25.7331048 59.3859175,28.6798135 C56.7792137,31.6265222 47.3172412,39.0665843 31,51 Z" id="Triangle-2"></path>
                    <ellipse id="Oval-4" cx="17" cy="16.5" rx="17" ry="16.5"></ellipse>
                    <ellipse id="Oval-4" cx="48" cy="16.5" rx="17" ry="16.5"></ellipse>
                </g>
                <g id="Retarded-cat" transform="translate(0.000000, 71.000000)">
                    <g id="Sitting-cat">
                        <rect id="Rectangle" fill="#D8D8D8" transform="translate(76.443137, 231.593049) rotate(90.000000) translate(-76.443137, -231.593049) " x="-28.7607843" y="166.988789" width="210.407843" height="129.20852" rx="64.6042601"></rect>
                        <path d="M110.414981,14.5145113 L131.839885,10.5934329 L131.839885,10.5934329 C135.946942,9.84177991 139.885705,12.5618726 140.637358,16.6689299 C140.791662,17.5120544 140.801465,18.37528 140.666345,19.221691 L137.108334,41.5096916 L137.108334,41.5096916 C135.046232,54.427059 123.903979,63.9316674 110.823053,63.9316674 L110.785332,63.9316674 L110.785332,63.9316674 C98.2660519,63.9316674 88.1171704,53.7827858 88.1171704,41.2635059 L88.1171704,41.2635059 L88.1171704,41.2635059 C88.1171704,28.133249 97.4992451,16.8782843 110.414981,14.5145113 Z" id="Rectangle" fill="#D8D8D8" transform="translate(114.439294, 37.201046) rotate(-63.000000) translate(-114.439294, -37.201046) "></path>
                        <path d="M33.5097871,14.7963732 L54.9346912,10.8752948 L54.9346912,10.8752948 C59.0417485,10.1236418 62.9805115,12.8437345 63.7321645,16.9507918 C63.8864689,17.7939163 63.8962711,18.6571419 63.7611517,19.5035528 L60.2031404,41.7915535 L60.2031404,41.7915535 C58.141038,54.7089208 46.998786,64.2135293 33.9178592,64.2135293 L33.8801383,64.2135293 L33.8801383,64.2135293 C21.3608584,64.2135293 11.2119768,54.0646477 11.2119768,41.5453678 L11.2119768,41.5453678 L11.2119768,41.5453678 C11.2119768,28.4151109 20.5940515,17.1601462 33.5097871,14.7963732 Z" id="Rectangle" fill="#D8D8D8" transform="translate(37.534101, 37.482907) rotate(-52.000000) translate(-37.534101, -37.482907) "></path>
                        <g id="Rectangle">
                            <use fill="#D8D8D8" fill-rule="evenodd" xlink:href="#path-1"></use>
                            <rect stroke="#C7C7C7" stroke-width="3.024" x="31.0296471" y="193.435767" width="24.9799216" height="77.8257758" rx="12.4899608"></rect>
                        </g>
                        <ellipse id="Oval" fill="#D8D8D8" cx="77.2" cy="92.1838565" rx="70.3882353" ry="61.2040359"></ellipse>
                        <ellipse id="Oval-2" fill="#FFFFFF" cx="99.9058824" cy="86.8946188" rx="17.4078431" ry="18.8901345"></ellipse>
                        <ellipse id="Oval-3" fill="#000000" cx="103.311765" cy="85.3834081" rx="7.94705882" ry="11.3340807"></ellipse>
                        <path d="M76.4431373,119.38565 C77.1549228,123.808328 79.9213667,127.493485 84.742469,130.441122 C89.5635713,133.388759 93.6664143,130.966338 97.050998,123.173859" id="Line" stroke="#979797" stroke-width="2.268" stroke-linecap="round"></path>
                        <path d="M56.0078431,119.38565 C56.7196287,123.808328 59.4860726,127.493485 64.3071749,130.441122 C69.1282772,133.388759 73.2311202,130.966338 76.6157039,123.173859" id="Line" stroke="#979797" stroke-width="2.268" stroke-linecap="round" transform="translate(66.311774, 125.520123) scale(-1, 1) translate(-66.311774, -125.520123) "></path>
                        <ellipse id="Oval-2" fill="#FFFFFF" cx="53.7372549" cy="86.8946188" rx="17.4078431" ry="18.8901345"></ellipse>
                        <ellipse id="Oval-3" fill="#000000" cx="48.8176471" cy="90.6726457" rx="7.94705882" ry="11.3340807"></ellipse>
                        <path d="M81.6665007,113.266163 C81.8506507,113.489435 81.9950494,113.646937 82.0996968,113.73867 C82.3777756,113.982431 83.2888267,114.562691 84.8328501,115.47945 L84.8328608,115.479432 C85.9099107,116.118926 86.2646193,117.510461 85.6251246,118.587511 C85.2164909,119.27574 84.4753535,119.697624 83.6749532,119.697624 L70.1830772,119.697624 L70.1830772,119.697619 C68.9304979,119.697619 67.9150817,118.682203 67.9150817,117.429624 C67.9150817,116.606067 68.3615198,115.847227 69.0813871,115.44718 C70.7056163,114.544558 71.652563,113.975055 71.9222271,113.73867 C72.0068997,113.664447 72.1138666,113.54499 72.2431278,113.380298 L72.2431268,113.380298 C74.3054141,110.752745 78.1072806,110.294507 80.7348332,112.356794 C81.0772049,112.625511 81.38957,112.930401 81.6665007,113.266163 Z" id="Triangle" fill="#FFBFBF" transform="translate(76.929035, 115.385807) scale(-1, -1) translate(-76.929035, -115.385807) "></path>
                        <path d="M144.350497,188.49232 C159.742947,205.604005 168.912039,225.153469 171.85777,247.140711 C174.803502,269.127953 165.634411,288.869969 144.350497,306.36676" id="Line-2" stroke="#D8D8D8" stroke-width="27.972" stroke-linecap="round" transform="translate(158.372730, 247.429540) rotate(21.000000) translate(-158.372730, -247.429540) "></path>
                        <rect id="Rectangle" fill="#D8D8D8" x="1.51372549" y="255.394619" width="28.0039216" height="80.8497758" rx="14.0019608"></rect>
                        <rect id="Rectangle" fill="#D8D8D8" x="125.639216" y="255.394619" width="28.0039216" height="80.8497758" rx="14.0019608"></rect>
                        <g id="Rectangle">
                            <use fill="#D8D8D8" fill-rule="evenodd" xlink:href="#path-2"></use>
                            <rect stroke="#C7C7C7" stroke-width="3.024" x="99.1472941" y="193.435767" width="24.9799216" height="141.296628" rx="12.4899608"></rect>
                        </g>
                    </g>
                </g>
            </g>
        </g>
    </g>
</svg>