<?xml version="1.0" encoding="UTF-8"?>
<svg width="156px" height="279px" viewBox="0 0 156 279" version="1.1" xmlns="http://www.w3.org/2000/svg" xmlns:xlink="http://www.w3.org/1999/xlink">
    <!-- Generator: Sketch 46.2 (44496) - http://www.bohemiancoding.com/sketch -->
    <title>Retarded cat</title>
    <desc>Created with Sketch.</desc>
    <defs>
        <rect id="path-1" x="24.6235294" y="160.03139" width="23.3607843" height="67.4147982" rx="11.6803922"></rect>
        <rect id="path-2" x="81.4470588" y="160.03139" width="23.3607843" height="120.338565" rx="11.6803922"></rect>
    </defs>
    <g id="Page-1" stroke="none" stroke-width="1" fill="none" fill-rule="evenodd">
        <g id="Desktop-HD-Copy-5" transform="translate(-661.000000, -465.000000)">
            <g id="Retarded-cat" transform="translate(660.000000, 463.000000)">
                <g id="Sitting-cat">
                    <rect id="Rectangle" fill="#D8D8D8" transform="translate(63.768627, 193.108744) rotate(90.000000) translate(-63.768627, -193.108744) " x="-23.9921569" y="139.23991" width="175.521569" height="107.737668" rx="53.8688341"></rect>
                    <path d="M92.0998722,12.1040607 L109.989461,8.83144631 L109.989461,8.83144631 C113.412058,8.2053369 116.694183,10.4723379 117.320292,13.8949347 C117.44882,14.5975289 117.456936,15.3168637 117.344291,16.0221787 L114.376634,34.6038708 L114.376634,34.6038708 C112.655664,45.3795597 103.360497,53.3080075 92.4482461,53.3080075 L92.4084149,53.3080075 L92.4084149,53.3080075 C81.9694901,53.3080075 73.5070696,44.845587 73.5070696,34.4066622 L73.5070696,34.4066622 L73.5070696,34.4066622 C73.5070696,23.4584899 81.3304162,14.0741607 92.0998722,12.1040607 Z" id="Rectangle" fill="#D8D8D8" transform="translate(95.464903, 31.019269) rotate(-63.000000) translate(-95.464903, -31.019269) "></path>
                    <path d="M27.9457989,12.3390851 L45.8353876,9.06647062 L45.8353876,9.06647062 C49.2579844,8.44036121 52.5401093,10.7073622 53.1662187,14.129959 C53.2947471,14.8325532 53.3028624,15.551888 53.1902175,16.257203 L50.2225611,34.8388951 L50.2225611,34.8388951 C48.5015906,45.614584 39.2064232,53.5430318 28.2941727,53.5430318 L28.2543415,53.5430318 L28.2543415,53.5430318 C17.8154168,53.5430318 9.35299622,45.0806113 9.35299622,34.6416865 L9.35299622,34.6416865 L9.35299622,34.6416865 C9.35299622,23.6935142 17.1763428,14.309185 27.9457989,12.3390851 Z" id="Rectangle" fill="#D8D8D8" transform="translate(31.310830, 31.254294) rotate(-52.000000) translate(-31.310830, -31.254294) "></path>
                    <g id="Rectangle">
                        <use fill="#D8D8D8" fill-rule="evenodd" xlink:href="#path-1"></use>
                        <rect stroke="#C7C7C7" stroke-width="2.52" x="25.8835294" y="161.29139" width="20.8407843" height="64.8947982" rx="10.4203922"></rect>
                    </g>
                    <ellipse id="Oval" fill="#D8D8D8" cx="64.4" cy="76.8654709" rx="58.7176471" ry="51.0336323"></ellipse>
                    <ellipse id="Oval-2" fill="#FFFFFF" cx="83.3411765" cy="72.455157" rx="14.5215686" ry="15.7511211"></ellipse>
                    <ellipse id="Oval-3" fill="#000000" cx="86.1823529" cy="71.1950673" rx="6.62941176" ry="9.45067265"></ellipse>
                    <path d="M63.7686275,99.5470852 C64.3623967,103.234837 66.6701557,106.307624 70.6919042,108.765446 C74.7136528,111.223268 78.1362316,109.203386 80.9596408,102.705799" id="Line" stroke="#979797" stroke-width="1.89" stroke-linecap="round"></path>
                    <path d="M46.7215686,99.5470852 C47.3153379,103.234837 49.6230968,106.307624 53.6448454,108.765446 C57.6665939,111.223268 61.0891728,109.203386 63.912582,102.705799" id="Line" stroke="#979797" stroke-width="1.89" stroke-linecap="round" transform="translate(55.317075, 104.662180) scale(-1, 1) translate(-55.317075, -104.662180) "></path>
                    <ellipse id="Oval-2" fill="#FFFFFF" cx="44.827451" cy="72.455157" rx="14.5215686" ry="15.7511211"></ellipse>
                    <ellipse id="Oval-3" fill="#000000" cx="40.7235294" cy="75.6053812" rx="6.62941176" ry="9.45067265"></ellipse>
                    <path d="M68.1227856,94.4406603 C68.2779097,94.6288581 68.3994185,94.7614632 68.4873119,94.8384755 C68.719474,95.0418966 69.4805241,95.526359 70.7704619,96.2918627 L70.770467,96.2918542 C71.6681249,96.8245624 71.9639751,97.9841033 71.4312669,98.8817612 C71.0907919,99.4554902 70.4730628,99.8072176 69.8059135,99.8072176 L58.5417649,99.8072176 L58.5417649,99.8072117 C57.4979499,99.8072117 56.6517707,98.9610325 56.6517707,97.9172176 C56.6517707,97.2307703 57.0239635,96.5982912 57.6240576,96.2649793 C58.9810758,95.5112469 59.772156,95.0357457 59.9972982,94.8384755 C60.0684526,94.7761299 60.1584799,94.6755089 60.2673803,94.5366123 L60.2673765,94.5366093 C61.984824,92.3460968 65.1528517,91.9626019 67.3433642,93.6800494 C67.6298814,93.9046901 67.8912137,94.1597155 68.1227856,94.4406603 Z" id="Triangle" fill="#FFBFBF" transform="translate(64.173962, 96.211905) scale(-1, -1) translate(-64.173962, -96.211905) "></path>
                    <path d="M120.416736,157.170154 C133.25707,171.438355 140.905897,187.739242 143.363218,206.072818 C145.820538,224.406394 138.17171,240.867838 120.416736,255.45715" id="Line-2" stroke="#D8D8D8" stroke-width="23.31" stroke-linecap="round" transform="translate(132.114039, 206.313652) rotate(21.000000) translate(-132.114039, -206.313652) "></path>
                    <rect id="Rectangle" fill="#D8D8D8" x="1.2627451" y="212.955157" width="23.3607843" height="67.4147982" rx="11.6803922"></rect>
                    <rect id="Rectangle" fill="#D8D8D8" x="104.807843" y="212.955157" width="23.3607843" height="67.4147982" rx="11.6803922"></rect>
                    <g id="Rectangle">
                        <use fill="#D8D8D8" fill-rule="evenodd" xlink:href="#path-2"></use>
                        <rect stroke="#C7C7C7" stroke-width="2.52" x="82.7070588" y="161.29139" width="20.8407843" height="117.818565" rx="10.4203922"></rect>
                    </g>
                </g>
            </g>
        </g>
    </g>
</svg>