<?xml version="1.0" encoding="UTF-8"?>
<svg width="156px" height="279px" viewBox="0 0 156 279" version="1.1" xmlns="http://www.w3.org/2000/svg" xmlns:xlink="http://www.w3.org/1999/xlink">
    <!-- Generator: Sketch 46.2 (44496) - http://www.bohemiancoding.com/sketch -->
    <title>Sitting cat</title>
    <desc>Created with Sketch.</desc>
    <defs>
        <rect id="path-1" x="24.6235294" y="160.872483" width="23.3607843" height="120.496644" rx="11.6803922"></rect>
        <rect id="path-2" x="81.4470588" y="160.872483" width="23.3607843" height="120.496644" rx="11.6803922"></rect>
    </defs>
    <g id="Page-1" stroke="none" stroke-width="1" fill="none" fill-rule="evenodd">
        <g id="Desktop-HD-Copy-2" transform="translate(-649.000000, -447.000000)">
            <g id="Sitting-cat" transform="translate(648.000000, 444.000000)">
                <rect id="Rectangle" fill="#D8D8D8" transform="translate(63.768627, 193.993289) rotate(90.000000) translate(-63.768627, -193.993289) " x="-23.9921569" y="140.053691" width="175.521569" height="107.879195" rx="53.9395973"></rect>
                <path d="M92.1235037,12.7465047 L109.989572,9.47389966 L109.989572,9.47389966 C113.412023,8.84699446 116.694675,11.1132322 117.32158,14.5356834 C117.450283,15.2383063 117.458556,15.9577003 117.346046,16.6630972 L114.372813,35.3041598 L114.372813,35.3041598 C112.654129,46.0796669 103.359957,54.0089065 92.4482461,54.0089065 L92.4332441,54.0089065 L92.4332441,54.0089065 C81.9806065,54.0089065 73.5070696,45.5353696 73.5070696,35.082732 L73.5070696,35.082732 L73.5070696,35.082732 C73.5070696,24.1195771 81.3397687,14.7218081 92.1235037,12.7465047 Z" id="Rectangle" fill="#D8D8D8" transform="translate(95.464903, 31.690889) rotate(-44.000000) translate(-95.464903, -31.690889) "></path>
                <path d="M27.9694304,12.9818377 L45.8354985,9.7092327 L45.8354985,9.7092327 C49.2579497,9.0823275 52.5406016,11.3485653 53.1675068,14.7710164 C53.2962093,15.4736394 53.3044823,16.1930334 53.1919722,16.8984303 L50.2187394,35.5394929 L50.2187394,35.5394929 C48.5000558,46.3149999 39.2058832,54.2442396 28.2941727,54.2442396 L28.2791707,54.2442396 L28.2791707,54.2442396 C17.8265332,54.2442396 9.35299622,45.7707026 9.35299622,35.3180651 L9.35299622,35.3180651 L9.35299622,35.3180651 C9.35299622,24.3549101 17.1856953,14.9571412 27.9694304,12.9818377 Z" id="Rectangle" fill="#D8D8D8" transform="translate(31.310830, 31.926223) rotate(-44.000000) translate(-31.310830, -31.926223) "></path>
                <g id="Rectangle">
                    <use fill="#D8D8D8" fill-rule="evenodd" xlink:href="#path-1"></use>
                    <rect stroke="#C7C7C7" stroke-width="2.52" x="25.8835294" y="162.132483" width="20.8407843" height="117.976644" rx="10.4203922"></rect>
                </g>
                <ellipse id="Oval" fill="#D8D8D8" cx="64.4" cy="77.5973154" rx="58.7176471" ry="51.1006711"></ellipse>
                <ellipse id="Oval-2" fill="#FFFFFF" cx="83.3411765" cy="73.1812081" rx="14.5215686" ry="15.7718121"></ellipse>
                <ellipse id="Oval-3" fill="#000000" cx="83.0254902" cy="74.442953" rx="6.62941176" ry="9.46308725"></ellipse>
                <path d="M63.7686275,100.308725 C64.3623967,104.001321 66.6701557,107.078144 70.6919042,109.539195 C74.7136528,112.000246 78.1362316,109.97771 80.9596408,103.471588" id="Line" stroke="#979797" stroke-width="1.89" stroke-linecap="round"></path>
                <path d="M46.7215686,100.308725 C47.3153379,104.001321 49.6230968,107.078144 53.6448454,109.539195 C57.6665939,112.000246 61.0891728,109.97771 63.912582,103.471588" id="Line" stroke="#979797" stroke-width="1.89" stroke-linecap="round" transform="translate(55.317075, 105.430539) scale(-1, 1) translate(-55.317075, -105.430539) "></path>
                <ellipse id="Oval-2" fill="#FFFFFF" cx="44.827451" cy="73.1812081" rx="14.5215686" ry="15.7718121"></ellipse>
                <ellipse id="Oval-3" fill="#000000" cx="44.5117647" cy="74.442953" rx="6.62941176" ry="9.46308725"></ellipse>
                <path d="M68.1241653,95.1972676 C68.2786304,95.3848243 68.3996792,95.5170451 68.4873119,95.5939298 C68.71999,95.7980708 69.4839092,96.2848744 70.7790696,97.0543406 L70.7790639,97.0543502 C71.6764493,97.5874947 71.9717247,98.7471683 71.4385802,99.6445537 C71.0979959,100.217823 70.48053,100.569199 69.8137203,100.569199 L58.533391,100.569199 L58.533391,100.56919 C57.4895779,100.56919 56.6434002,99.723012 56.6434002,98.6791989 C56.6434002,97.9930684 57.0152533,97.3608294 57.6149151,97.0273917 C58.9775232,96.2697229 59.7716509,95.7919023 59.9972982,95.5939298 C60.0682365,95.5316919 60.1579332,95.4313607 60.2663885,95.2929362 L60.2663853,95.2929337 C61.9830979,93.1018456 65.1509963,92.7172883 67.3420844,94.4340009 C67.6296718,94.659325 67.8919065,94.9152512 68.1241653,95.1972676 Z" id="Triangle" fill="#FFBFBF" transform="translate(64.173962, 96.969163) scale(-1, -1) translate(-64.173962, -96.969163) "></path>
                <path d="M120.416736,158.007489 C133.25707,172.294432 140.905897,188.616733 143.363218,206.974392 C145.820538,225.332051 138.17171,241.815119 120.416736,256.423596" id="Line-2" stroke="#D8D8D8" stroke-width="23.31" stroke-linecap="round" transform="translate(132.114039, 207.215543) rotate(21.000000) translate(-132.114039, -207.215543) "></path>
                <rect id="Rectangle" fill="#D8D8D8" x="1.2627451" y="213.865772" width="23.3607843" height="67.5033557" rx="11.6803922"></rect>
                <rect id="Rectangle" fill="#D8D8D8" x="104.807843" y="213.865772" width="23.3607843" height="67.5033557" rx="11.6803922"></rect>
                <g id="Rectangle">
                    <use fill="#D8D8D8" fill-rule="evenodd" xlink:href="#path-2"></use>
                    <rect stroke="#C7C7C7" stroke-width="2.52" x="82.7070588" y="162.132483" width="20.8407843" height="117.976644" rx="10.4203922"></rect>
                </g>
            </g>
        </g>
    </g>
</svg>